<svg xmlns="http://www.w3.org/2000/svg" version="1.1" xmlns:xlink="http://www.w3.org/1999/xlink" width="200" height="200"><svg xmlns="http://www.w3.org/2000/svg" version="1.1" xmlns:xlink="http://www.w3.org/1999/xlink" width="200" height="200"><svg xmlns="http://www.w3.org/2000/svg" version="1.1" xmlns:xlink="http://www.w3.org/1999/xlink" viewBox="0 0 200 200"><rect width="200" height="200" fill="url('#gradient')"></rect><defs><linearGradient id="gradient" gradientTransform="rotate(45 0.5 0.5)"><stop offset="0%" stop-color="#b0bea6"></stop><stop offset="100%" stop-color="#cdb891"></stop></linearGradient></defs><g><g fill="#2c3448" transform="matrix(2.070080862533693,0,0,2.070080862533693,7.7771167578401545,115.32094223480019)" stroke="#27354b" stroke-width="1.85"><path d="M1.07-14.22L5.58-14.22L8.75-4.33L11.91-14.22L16.43-14.22L16.43 0L12.99 0L12.99-3.32L13.32-10.12L9.88 0L7.62 0L4.17-10.13L4.50-3.32L4.50 0L1.07 0L1.07-14.22ZM24.88-7.40L24.88-4.85L19.01-4.85L19.01-7.40L24.88-7.40ZM27.60-14.22L32.10-14.22L35.27-4.33L38.44-14.22L42.95-14.22L42.95 0L39.51 0L39.51-3.32L39.84-10.12L36.41 0L34.14 0L30.69-10.13L31.03-3.32L31.03 0L27.60 0L27.60-14.22ZM44.57-4.82L44.56-5.38Q44.56-6.96 45.18-8.20Q45.79-9.43 46.94-10.10Q48.10-10.76 49.65-10.76L49.65-10.76Q52.02-10.76 53.39-9.29Q54.76-7.82 54.76-5.29L54.76-5.29L54.76-5.18Q54.76-2.71 53.38-1.25Q52.01 0.20 49.67 0.20L49.67 0.20Q47.41 0.20 46.04-1.16Q44.68-2.51 44.57-4.82L44.57-4.82ZM47.86-5.77L47.85-5.18Q47.85-3.71 48.31-3.03Q48.77-2.34 49.67-2.34L49.67-2.34Q51.43-2.34 51.46-5.05L51.46-5.05L51.46-5.38Q51.46-8.22 49.65-8.22L49.65-8.22Q48.00-8.22 47.86-5.77L47.86-5.77ZM66.02-5.36L66.02-5.20Q66.02-2.60 64.94-1.20Q63.87 0.20 61.91 0.20L61.91 0.20Q60.30 0.20 59.32-1.08L59.32-1.08L59.18 0L56.23 0L56.23-15L59.52-15L59.52-9.72Q60.44-10.76 61.89-10.76L61.89-10.76Q63.87-10.76 64.94-9.35Q66.02-7.93 66.02-5.36L66.02-5.36ZM62.71-5.40L62.71-5.40Q62.71-6.92 62.31-7.57Q61.90-8.22 61.06-8.22L61.06-8.22Q59.95-8.22 59.52-7.37L59.52-7.37L59.52-3.17Q59.94-2.33 61.08-2.33L61.08-2.33Q62.25-2.33 62.56-3.47L62.56-3.47Q62.71-4.02 62.71-5.40ZM70.94-10.57L70.94 0L67.64 0L67.64-10.57L70.94-10.57ZM67.44-13.29L67.44-13.29Q67.44-13.99 67.95-14.44Q68.46-14.89 69.27-14.89Q70.08-14.89 70.59-14.44Q71.09-13.99 71.09-13.29Q71.09-12.59 70.59-12.14Q70.08-11.69 69.27-11.69Q68.46-11.69 67.95-12.14Q67.44-12.59 67.44-13.29ZM76.44-15L76.44 0L73.13 0L73.13-15L76.44-15ZM83.57 0.20L83.57 0.20Q81.14 0.20 79.64-1.25Q78.13-2.71 78.13-5.03L78.13-5.03L78.13-5.30Q78.13-6.92 78.74-8.16Q79.34-9.40 80.49-10.08Q81.64-10.76 83.22-10.76L83.22-10.76Q85.45-10.76 86.74-9.38Q88.03-8.00 88.03-5.53L88.03-5.53L88.03-4.25L81.48-4.25Q81.66-3.36 82.26-2.85Q82.85-2.34 83.80-2.34L83.80-2.34Q85.36-2.34 86.24-3.44L86.24-3.44L87.74-1.66Q87.13-0.81 86.00-0.31Q84.87 0.20 83.57 0.20ZM83.20-8.22L83.20-8.22Q81.76-8.22 81.48-6.31L81.48-6.31L84.80-6.31L84.80-6.56Q84.82-7.35 84.40-7.79Q83.98-8.22 83.20-8.22Z"></path></g></g></svg></svg><style>@media (prefers-color-scheme: light) { :root { filter: none; } }
@media (prefers-color-scheme: dark) { :root { filter: none; } }
</style></svg>